<?xml version="1.0" encoding="utf-8"?>
<svg version="1.1" xmlns:xlink="http://www.w3.org/1999/xlink" width="18px" height="18px" viewBox="251 1363  18 18" xmlns="http://www.w3.org/2000/svg">
  <path d="M 260 1364  C 264.48 1364  268 1367.52  268 1372  C 268 1376.48  264.48 1380  260 1380  C 255.52 1380  252 1376.48  252 1372  C 252 1367.52  255.52 1364  260 1364  Z " fill-rule="nonzero" fill="#6200ee" stroke="none" fill-opacity="0" />
  <path d="M 260 1364  C 264.48 1364  268 1367.52  268 1372  C 268 1376.48  264.48 1380  260 1380  C 255.52 1380  252 1376.48  252 1372  C 252 1367.52  255.52 1364  260 1364  Z " stroke-width="2" stroke="#1e98d7" fill="none" />
  <path d="M 260 1376.5  C 257.48 1376.5  255.5 1374.52  255.5 1372  C 255.5 1369.48  257.48 1367.5  260 1367.5  C 262.52 1367.5  264.5 1369.48  264.5 1372  C 264.5 1374.52  262.52 1376.5  260 1376.5  " fill-rule="nonzero" fill="#1e98d7" stroke="none" />
</svg>