<?xml version="1.0" encoding="utf-8"?>
<svg version="1.1" xmlns:xlink="http://www.w3.org/1999/xlink" width="18px" height="18px" viewBox="243 1425  18 18" xmlns="http://www.w3.org/2000/svg">
  <path d="M 252 1426  C 256.48 1426  260 1429.52  260 1434  C 260 1438.48  256.48 1442  252 1442  C 247.52 1442  244 1438.48  244 1434  C 244 1429.52  247.52 1426  252 1426  Z " fill-rule="nonzero" fill="#6200ee" stroke="none" fill-opacity="0" />
  <path d="M 252 1426  C 256.48 1426  260 1429.52  260 1434  C 260 1438.48  256.48 1442  252 1442  C 247.52 1442  244 1438.48  244 1434  C 244 1429.52  247.52 1426  252 1426  Z " stroke-width="2" stroke="#1e98d7" fill="none" />
  <path d="M 252 1438.5  C 249.48 1438.5  247.5 1436.52  247.5 1434  C 247.5 1431.48  249.48 1429.5  252 1429.5  C 254.52 1429.5  256.5 1431.48  256.5 1434  C 256.5 1436.52  254.52 1438.5  252 1438.5  " fill-rule="nonzero" fill="#1e98d7" stroke="none" />
</svg>