<?xml version="1.0" encoding="utf-8"?>
<svg version="1.1" xmlns:xlink="http://www.w3.org/1999/xlink" width="18px" height="18px" viewBox="251 1255  18 18" xmlns="http://www.w3.org/2000/svg">
  <path d="M 260 1256  C 264.48 1256  268 1259.52  268 1264  C 268 1268.48  264.48 1272  260 1272  C 255.52 1272  252 1268.48  252 1264  C 252 1259.52  255.52 1256  260 1256  Z " fill-rule="nonzero" fill="#6200ee" stroke="none" fill-opacity="0" />
  <path d="M 260 1256  C 264.48 1256  268 1259.52  268 1264  C 268 1268.48  264.48 1272  260 1272  C 255.52 1272  252 1268.48  252 1264  C 252 1259.52  255.52 1256  260 1256  Z " stroke-width="2" stroke="#1e98d7" fill="none" />
  <path d="M 260 1268.5  C 257.48 1268.5  255.5 1266.52  255.5 1264  C 255.5 1261.48  257.48 1259.5  260 1259.5  C 262.52 1259.5  264.5 1261.48  264.5 1264  C 264.5 1266.52  262.52 1268.5  260 1268.5  " fill-rule="nonzero" fill="#1e98d7" stroke="none" />
</svg>