<?xml version="1.0" encoding="utf-8"?>
<svg version="1.1" xmlns:xlink="http://www.w3.org/1999/xlink" width="18px" height="18px" viewBox="236 550  18 18" xmlns="http://www.w3.org/2000/svg">
  <path d="M 245 551  C 249.48 551  253 554.52  253 559  C 253 563.48  249.48 567  245 567  C 240.52 567  237 563.48  237 559  C 237 554.52  240.52 551  245 551  Z " fill-rule="nonzero" fill="#6200ee" stroke="none" fill-opacity="0" />
  <path d="M 245 551  C 249.48 551  253 554.52  253 559  C 253 563.48  249.48 567  245 567  C 240.52 567  237 563.48  237 559  C 237 554.52  240.52 551  245 551  Z " stroke-width="2" stroke="#1e98d7" fill="none" />
  <path d="M 245 563.5  C 242.48 563.5  240.5 561.52  240.5 559  C 240.5 556.48  242.48 554.5  245 554.5  C 247.52 554.5  249.5 556.48  249.5 559  C 249.5 561.52  247.52 563.5  245 563.5  " fill-rule="nonzero" fill="#1e98d7" stroke="none" />
</svg>