<?xml version="1.0" encoding="utf-8"?>
<svg version="1.1" xmlns:xlink="http://www.w3.org/1999/xlink" width="18px" height="18px" viewBox="252 371  18 18" xmlns="http://www.w3.org/2000/svg">
  <path d="M 261 372  C 265.48 372  269 375.52  269 380  C 269 384.48  265.48 388  261 388  C 256.52 388  253 384.48  253 380  C 253 375.52  256.52 372  261 372  Z " fill-rule="nonzero" fill="#6200ee" stroke="none" fill-opacity="0" />
  <path d="M 261 372  C 265.48 372  269 375.52  269 380  C 269 384.48  265.48 388  261 388  C 256.52 388  253 384.48  253 380  C 253 375.52  256.52 372  261 372  Z " stroke-width="2" stroke="#1e98d7" fill="none" />
  <path d="M 261 384.5  C 258.48 384.5  256.5 382.52  256.5 380  C 256.5 377.48  258.48 375.5  261 375.5  C 263.52 375.5  265.5 377.48  265.5 380  C 265.5 382.52  263.52 384.5  261 384.5  " fill-rule="nonzero" fill="#1e98d7" stroke="none" />
</svg>