<?xml version="1.0" encoding="utf-8"?>
<svg version="1.1" xmlns:xlink="http://www.w3.org/1999/xlink" width="18px" height="18px" viewBox="244 597  18 18" xmlns="http://www.w3.org/2000/svg">
  <path d="M 253 598  C 257.48 598  261 601.52  261 606  C 261 610.48  257.48 614  253 614  C 248.52 614  245 610.48  245 606  C 245 601.52  248.52 598  253 598  Z " fill-rule="nonzero" fill="#6200ee" stroke="none" fill-opacity="0" />
  <path d="M 253 598  C 257.48 598  261 601.52  261 606  C 261 610.48  257.48 614  253 614  C 248.52 614  245 610.48  245 606  C 245 601.52  248.52 598  253 598  Z " stroke-width="2" stroke="#1e98d7" fill="none" />
  <path d="M 253 610.5  C 250.48 610.5  248.5 608.52  248.5 606  C 248.5 603.48  250.48 601.5  253 601.5  C 255.52 601.5  257.5 603.48  257.5 606  C 257.5 608.52  255.52 610.5  253 610.5  " fill-rule="nonzero" fill="#1e98d7" stroke="none" />
</svg>