<?xml version="1.0" encoding="utf-8"?>
<svg version="1.1" xmlns:xlink="http://www.w3.org/1999/xlink" width="18px" height="18px" viewBox="252 479  18 18" xmlns="http://www.w3.org/2000/svg">
  <path d="M 261 480  C 265.48 480  269 483.52  269 488  C 269 492.48  265.48 496  261 496  C 256.52 496  253 492.48  253 488  C 253 483.52  256.52 480  261 480  Z " fill-rule="nonzero" fill="#6200ee" stroke="none" fill-opacity="0" />
  <path d="M 261 480  C 265.48 480  269 483.52  269 488  C 269 492.48  265.48 496  261 496  C 256.52 496  253 492.48  253 488  C 253 483.52  256.52 480  261 480  Z " stroke-width="2" stroke="#1e98d7" fill="none" />
  <path d="M 261 492.5  C 258.48 492.5  256.5 490.52  256.5 488  C 256.5 485.48  258.48 483.5  261 483.5  C 263.52 483.5  265.5 485.48  265.5 488  C 265.5 490.52  263.52 492.5  261 492.5  " fill-rule="nonzero" fill="#1e98d7" stroke="none" />
</svg>