<?xml version="1.0" encoding="utf-8"?>
<svg version="1.1" xmlns:xlink="http://www.w3.org/1999/xlink" width="18px" height="18px" viewBox="243 1481  18 18" xmlns="http://www.w3.org/2000/svg">
  <path d="M 252 1482  C 256.48 1482  260 1485.52  260 1490  C 260 1494.48  256.48 1498  252 1498  C 247.52 1498  244 1494.48  244 1490  C 244 1485.52  247.52 1482  252 1482  Z " fill-rule="nonzero" fill="#6200ee" stroke="none" fill-opacity="0" />
  <path d="M 252 1482  C 256.48 1482  260 1485.52  260 1490  C 260 1494.48  256.48 1498  252 1498  C 247.52 1498  244 1494.48  244 1490  C 244 1485.52  247.52 1482  252 1482  Z " stroke-width="2" stroke="#1e98d7" fill="none" />
  <path d="M 252 1494.5  C 249.48 1494.5  247.5 1492.52  247.5 1490  C 247.5 1487.48  249.48 1485.5  252 1485.5  C 254.52 1485.5  256.5 1487.48  256.5 1490  C 256.5 1492.52  254.52 1494.5  252 1494.5  " fill-rule="nonzero" fill="#1e98d7" stroke="none" />
</svg>