<?xml version="1.0" encoding="utf-8"?>
<svg version="1.1" xmlns:xlink="http://www.w3.org/1999/xlink" width="18px" height="18px" viewBox="244 541  18 18" xmlns="http://www.w3.org/2000/svg">
  <path d="M 253 542  C 257.48 542  261 545.52  261 550  C 261 554.48  257.48 558  253 558  C 248.52 558  245 554.48  245 550  C 245 545.52  248.52 542  253 542  Z " fill-rule="nonzero" fill="#6200ee" stroke="none" fill-opacity="0" />
  <path d="M 253 542  C 257.48 542  261 545.52  261 550  C 261 554.48  257.48 558  253 558  C 248.52 558  245 554.48  245 550  C 245 545.52  248.52 542  253 542  Z " stroke-width="2" stroke="#1e98d7" fill="none" />
  <path d="M 253 554.5  C 250.48 554.5  248.5 552.52  248.5 550  C 248.5 547.48  250.48 545.5  253 545.5  C 255.52 545.5  257.5 547.48  257.5 550  C 257.5 552.52  255.52 554.5  253 554.5  " fill-rule="nonzero" fill="#1e98d7" stroke="none" />
</svg>