<?xml version="1.0" encoding="utf-8"?>
<svg version="1.1" xmlns:xlink="http://www.w3.org/1999/xlink" width="18px" height="18px" viewBox="252 425  18 18" xmlns="http://www.w3.org/2000/svg">
  <path d="M 261 426  C 265.48 426  269 429.52  269 434  C 269 438.48  265.48 442  261 442  C 256.52 442  253 438.48  253 434  C 253 429.52  256.52 426  261 426  Z " fill-rule="nonzero" fill="#6200ee" stroke="none" fill-opacity="0" />
  <path d="M 261 426  C 265.48 426  269 429.52  269 434  C 269 438.48  265.48 442  261 442  C 256.52 442  253 438.48  253 434  C 253 429.52  256.52 426  261 426  Z " stroke-width="2" stroke="#1e98d7" fill="none" />
  <path d="M 261 438.5  C 258.48 438.5  256.5 436.52  256.5 434  C 256.5 431.48  258.48 429.5  261 429.5  C 263.52 429.5  265.5 431.48  265.5 434  C 265.5 436.52  263.52 438.5  261 438.5  " fill-rule="nonzero" fill="#1e98d7" stroke="none" />
</svg>