<?xml version="1.0" encoding="utf-8"?>
<svg version="1.1" xmlns:xlink="http://www.w3.org/1999/xlink" width="18px" height="18px" viewBox="230 1332  18 18" xmlns="http://www.w3.org/2000/svg">
  <path d="M 239 1333  C 243.48 1333  247 1336.52  247 1341  C 247 1345.48  243.48 1349  239 1349  C 234.52 1349  231 1345.48  231 1341  C 231 1336.52  234.52 1333  239 1333  Z " fill-rule="nonzero" fill="#6200ee" stroke="none" fill-opacity="0" />
  <path d="M 239 1333  C 243.48 1333  247 1336.52  247 1341  C 247 1345.48  243.48 1349  239 1349  C 234.52 1349  231 1345.48  231 1341  C 231 1336.52  234.52 1333  239 1333  Z " stroke-width="2" stroke="#1e98d7" fill="none" />
  <path d="M 239 1345.5  C 236.48 1345.5  234.5 1343.52  234.5 1341  C 234.5 1338.48  236.48 1336.5  239 1336.5  C 241.52 1336.5  243.5 1338.48  243.5 1341  C 243.5 1343.52  241.52 1345.5  239 1345.5  " fill-rule="nonzero" fill="#1e98d7" stroke="none" />
</svg>