<?xml version="1.0" encoding="utf-8"?>
<svg version="1.1" xmlns:xlink="http://www.w3.org/1999/xlink" width="18px" height="18px" viewBox="230 1479  18 18" xmlns="http://www.w3.org/2000/svg">
  <path d="M 239 1480  C 243.48 1480  247 1483.52  247 1488  C 247 1492.48  243.48 1496  239 1496  C 234.52 1496  231 1492.48  231 1488  C 231 1483.52  234.52 1480  239 1480  Z " fill-rule="nonzero" fill="#6200ee" stroke="none" fill-opacity="0" />
  <path d="M 239 1480  C 243.48 1480  247 1483.52  247 1488  C 247 1492.48  243.48 1496  239 1496  C 234.52 1496  231 1492.48  231 1488  C 231 1483.52  234.52 1480  239 1480  Z " stroke-width="2" stroke="#1e98d7" fill="none" />
  <path d="M 239 1492.5  C 236.48 1492.5  234.5 1490.52  234.5 1488  C 234.5 1485.48  236.48 1483.5  239 1483.5  C 241.52 1483.5  243.5 1485.48  243.5 1488  C 243.5 1490.52  241.52 1492.5  239 1492.5  " fill-rule="nonzero" fill="#1e98d7" stroke="none" />
</svg>