<?xml version="1.0" encoding="utf-8"?>
<svg version="1.1" xmlns:xlink="http://www.w3.org/1999/xlink" width="18px" height="18px" viewBox="230 1382  18 18" xmlns="http://www.w3.org/2000/svg">
  <path d="M 239 1383  C 243.48 1383  247 1386.52  247 1391  C 247 1395.48  243.48 1399  239 1399  C 234.52 1399  231 1395.48  231 1391  C 231 1386.52  234.52 1383  239 1383  Z " fill-rule="nonzero" fill="#6200ee" stroke="none" fill-opacity="0" />
  <path d="M 239 1383  C 243.48 1383  247 1386.52  247 1391  C 247 1395.48  243.48 1399  239 1399  C 234.52 1399  231 1395.48  231 1391  C 231 1386.52  234.52 1383  239 1383  Z " stroke-width="2" stroke="#1e98d7" fill="none" />
  <path d="M 239 1395.5  C 236.48 1395.5  234.5 1393.52  234.5 1391  C 234.5 1388.48  236.48 1386.5  239 1386.5  C 241.52 1386.5  243.5 1388.48  243.5 1391  C 243.5 1393.52  241.52 1395.5  239 1395.5  " fill-rule="nonzero" fill="#1e98d7" stroke="none" />
</svg>