<?xml version="1.0" encoding="utf-8"?>
<svg version="1.1" xmlns:xlink="http://www.w3.org/1999/xlink" width="18px" height="18px" viewBox="230 1432  18 18" xmlns="http://www.w3.org/2000/svg">
  <path d="M 239 1433  C 243.48 1433  247 1436.52  247 1441  C 247 1445.48  243.48 1449  239 1449  C 234.52 1449  231 1445.48  231 1441  C 231 1436.52  234.52 1433  239 1433  Z " fill-rule="nonzero" fill="#6200ee" stroke="none" fill-opacity="0" />
  <path d="M 239 1433  C 243.48 1433  247 1436.52  247 1441  C 247 1445.48  243.48 1449  239 1449  C 234.52 1449  231 1445.48  231 1441  C 231 1436.52  234.52 1433  239 1433  Z " stroke-width="2" stroke="#1e98d7" fill="none" />
  <path d="M 239 1445.5  C 236.48 1445.5  234.5 1443.52  234.5 1441  C 234.5 1438.48  236.48 1436.5  239 1436.5  C 241.52 1436.5  243.5 1438.48  243.5 1441  C 243.5 1443.52  241.52 1445.5  239 1445.5  " fill-rule="nonzero" fill="#1e98d7" stroke="none" />
</svg>