<?xml version="1.0" encoding="utf-8"?>
<svg version="1.1" xmlns:xlink="http://www.w3.org/1999/xlink" width="18px" height="18px" viewBox="214 400  18 18" xmlns="http://www.w3.org/2000/svg">
  <path d="M 223 401  C 227.48 401  231 404.52  231 409  C 231 413.48  227.48 417  223 417  C 218.52 417  215 413.48  215 409  C 215 404.52  218.52 401  223 401  Z " fill-rule="nonzero" fill="#6200ee" stroke="none" fill-opacity="0" />
  <path d="M 223 401  C 227.48 401  231 404.52  231 409  C 231 413.48  227.48 417  223 417  C 218.52 417  215 413.48  215 409  C 215 404.52  218.52 401  223 401  Z " stroke-width="2" stroke="#1e98d7" fill="none" />
  <path d="M 223 413.5  C 220.48 413.5  218.5 411.52  218.5 409  C 218.5 406.48  220.48 404.5  223 404.5  C 225.52 404.5  227.5 406.48  227.5 409  C 227.5 411.52  225.52 413.5  223 413.5  " fill-rule="nonzero" fill="#1e98d7" stroke="none" />
</svg>