<?xml version="1.0" encoding="utf-8"?>
<svg version="1.1" xmlns:xlink="http://www.w3.org/1999/xlink" width="18px" height="18px" viewBox="234 587  18 18" xmlns="http://www.w3.org/2000/svg">
  <path d="M 243 588  C 247.48 588  251 591.52  251 596  C 251 600.48  247.48 604  243 604  C 238.52 604  235 600.48  235 596  C 235 591.52  238.52 588  243 588  Z " fill-rule="nonzero" fill="#6200ee" stroke="none" fill-opacity="0" />
  <path d="M 243 588  C 247.48 588  251 591.52  251 596  C 251 600.48  247.48 604  243 604  C 238.52 604  235 600.48  235 596  C 235 591.52  238.52 588  243 588  Z " stroke-width="2" stroke="#1e98d7" fill="none" />
  <path d="M 243 600.5  C 240.48 600.5  238.5 598.52  238.5 596  C 238.5 593.48  240.48 591.5  243 591.5  C 245.52 591.5  247.5 593.48  247.5 596  C 247.5 598.52  245.52 600.5  243 600.5  " fill-rule="nonzero" fill="#1e98d7" stroke="none" />
</svg>