<?xml version="1.0" encoding="utf-8"?>
<svg version="1.1" xmlns:xlink="http://www.w3.org/1999/xlink" width="18px" height="18px" viewBox="214 319  18 18" xmlns="http://www.w3.org/2000/svg">
  <path d="M 223 320  C 227.48 320  231 323.52  231 328  C 231 332.48  227.48 336  223 336  C 218.52 336  215 332.48  215 328  C 215 323.52  218.52 320  223 320  Z " fill-rule="nonzero" fill="#6200ee" stroke="none" fill-opacity="0" />
  <path d="M 223 320  C 227.48 320  231 323.52  231 328  C 231 332.48  227.48 336  223 336  C 218.52 336  215 332.48  215 328  C 215 323.52  218.52 320  223 320  Z " stroke-width="2" stroke="#1e98d7" fill="none" />
  <path d="M 223 332.5  C 220.48 332.5  218.5 330.52  218.5 328  C 218.5 325.48  220.48 323.5  223 323.5  C 225.52 323.5  227.5 325.48  227.5 328  C 227.5 330.52  225.52 332.5  223 332.5  " fill-rule="nonzero" fill="#1e98d7" stroke="none" />
</svg>