<?xml version="1.0" encoding="utf-8"?>
<svg version="1.1" xmlns:xlink="http://www.w3.org/1999/xlink" width="18px" height="18px" viewBox="214 529  18 18" xmlns="http://www.w3.org/2000/svg">
  <path d="M 223 530  C 227.48 530  231 533.52  231 538  C 231 542.48  227.48 546  223 546  C 218.52 546  215 542.48  215 538  C 215 533.52  218.52 530  223 530  Z " fill-rule="nonzero" fill="#6200ee" stroke="none" fill-opacity="0" />
  <path d="M 223 530  C 227.48 530  231 533.52  231 538  C 231 542.48  227.48 546  223 546  C 218.52 546  215 542.48  215 538  C 215 533.52  218.52 530  223 530  Z " stroke-width="2" stroke="#1e98d7" fill="none" />
  <path d="M 223 542.5  C 220.48 542.5  218.5 540.52  218.5 538  C 218.5 535.48  220.48 533.5  223 533.5  C 225.52 533.5  227.5 535.48  227.5 538  C 227.5 540.52  225.52 542.5  223 542.5  " fill-rule="nonzero" fill="#1e98d7" stroke="none" />
</svg>