<?xml version="1.0" encoding="utf-8"?>
<svg version="1.1" xmlns:xlink="http://www.w3.org/1999/xlink" width="18px" height="18px" viewBox="214 270  18 18" xmlns="http://www.w3.org/2000/svg">
  <path d="M 223 271  C 227.48 271  231 274.52  231 279  C 231 283.48  227.48 287  223 287  C 218.52 287  215 283.48  215 279  C 215 274.52  218.52 271  223 271  Z " fill-rule="nonzero" fill="#6200ee" stroke="none" fill-opacity="0" />
  <path d="M 223 271  C 227.48 271  231 274.52  231 279  C 231 283.48  227.48 287  223 287  C 218.52 287  215 283.48  215 279  C 215 274.52  218.52 271  223 271  Z " stroke-width="2" stroke="#1e98d7" fill="none" />
  <path d="M 223 283.5  C 220.48 283.5  218.5 281.52  218.5 279  C 218.5 276.48  220.48 274.5  223 274.5  C 225.52 274.5  227.5 276.48  227.5 279  C 227.5 281.52  225.52 283.5  223 283.5  " fill-rule="nonzero" fill="#1e98d7" stroke="none" />
</svg>