<?xml version="1.0" encoding="utf-8"?>
<svg version="1.1" xmlns:xlink="http://www.w3.org/1999/xlink" width="18px" height="18px" viewBox="250 1023  18 18" xmlns="http://www.w3.org/2000/svg">
  <path d="M 259 1024  C 263.48 1024  267 1027.52  267 1032  C 267 1036.48  263.48 1040  259 1040  C 254.52 1040  251 1036.48  251 1032  C 251 1027.52  254.52 1024  259 1024  Z " fill-rule="nonzero" fill="#6200ee" stroke="none" fill-opacity="0" />
  <path d="M 259 1024  C 263.48 1024  267 1027.52  267 1032  C 267 1036.48  263.48 1040  259 1040  C 254.52 1040  251 1036.48  251 1032  C 251 1027.52  254.52 1024  259 1024  Z " stroke-width="2" stroke="#1e98d7" fill="none" />
  <path d="M 259 1036.5  C 256.48 1036.5  254.5 1034.52  254.5 1032  C 254.5 1029.48  256.48 1027.5  259 1027.5  C 261.52 1027.5  263.5 1029.48  263.5 1032  C 263.5 1034.52  261.52 1036.5  259 1036.5  " fill-rule="nonzero" fill="#1e98d7" stroke="none" />
</svg>