<?xml version="1.0" encoding="utf-8"?>
<svg version="1.1" xmlns:xlink="http://www.w3.org/1999/xlink" width="18px" height="18px" viewBox="236 449  18 18" xmlns="http://www.w3.org/2000/svg">
  <path d="M 245 450  C 249.48 450  253 453.52  253 458  C 253 462.48  249.48 466  245 466  C 240.52 466  237 462.48  237 458  C 237 453.52  240.52 450  245 450  Z " fill-rule="nonzero" fill="#6200ee" stroke="none" fill-opacity="0" />
  <path d="M 245 450  C 249.48 450  253 453.52  253 458  C 253 462.48  249.48 466  245 466  C 240.52 466  237 462.48  237 458  C 237 453.52  240.52 450  245 450  Z " stroke-width="2" stroke="#1e98d7" fill="none" />
  <path d="M 245 462.5  C 242.48 462.5  240.5 460.52  240.5 458  C 240.5 455.48  242.48 453.5  245 453.5  C 247.52 453.5  249.5 455.48  249.5 458  C 249.5 460.52  247.52 462.5  245 462.5  " fill-rule="nonzero" fill="#1e98d7" stroke="none" />
</svg>