<?xml version="1.0" encoding="utf-8"?>
<svg version="1.1" xmlns:xlink="http://www.w3.org/1999/xlink" width="18px" height="18px" viewBox="214 470  18 18" xmlns="http://www.w3.org/2000/svg">
  <path d="M 223 471  C 227.48 471  231 474.52  231 479  C 231 483.48  227.48 487  223 487  C 218.52 487  215 483.48  215 479  C 215 474.52  218.52 471  223 471  Z " fill-rule="nonzero" fill="#6200ee" stroke="none" fill-opacity="0" />
  <path d="M 223 471  C 227.48 471  231 474.52  231 479  C 231 483.48  227.48 487  223 487  C 218.52 487  215 483.48  215 479  C 215 474.52  218.52 471  223 471  Z " stroke-width="2" stroke="#1e98d7" fill="none" />
  <path d="M 223 483.5  C 220.48 483.5  218.5 481.52  218.5 479  C 218.5 476.48  220.48 474.5  223 474.5  C 225.52 474.5  227.5 476.48  227.5 479  C 227.5 481.52  225.52 483.5  223 483.5  " fill-rule="nonzero" fill="#1e98d7" stroke="none" />
</svg>