<?xml version="1.0" encoding="utf-8"?>
<svg version="1.1" xmlns:xlink="http://www.w3.org/1999/xlink" width="18px" height="18px" viewBox="242 1085  18 18" xmlns="http://www.w3.org/2000/svg">
  <path d="M 251 1086  C 255.48 1086  259 1089.52  259 1094  C 259 1098.48  255.48 1102  251 1102  C 246.52 1102  243 1098.48  243 1094  C 243 1089.52  246.52 1086  251 1086  Z " fill-rule="nonzero" fill="#6200ee" stroke="none" fill-opacity="0" />
  <path d="M 251 1086  C 255.48 1086  259 1089.52  259 1094  C 259 1098.48  255.48 1102  251 1102  C 246.52 1102  243 1098.48  243 1094  C 243 1089.52  246.52 1086  251 1086  Z " stroke-width="2" stroke="#1e98d7" fill="none" />
  <path d="M 251 1098.5  C 248.48 1098.5  246.5 1096.52  246.5 1094  C 246.5 1091.48  248.48 1089.5  251 1089.5  C 253.52 1089.5  255.5 1091.48  255.5 1094  C 255.5 1096.52  253.52 1098.5  251 1098.5  " fill-rule="nonzero" fill="#1e98d7" stroke="none" />
</svg>