<?xml version="1.0" encoding="utf-8"?>
<svg version="1.1" xmlns:xlink="http://www.w3.org/1999/xlink" width="18px" height="18px" viewBox="234 531  18 18" xmlns="http://www.w3.org/2000/svg">
  <path d="M 243 532  C 247.48 532  251 535.52  251 540  C 251 544.48  247.48 548  243 548  C 238.52 548  235 544.48  235 540  C 235 535.52  238.52 532  243 532  Z " fill-rule="nonzero" fill="#6200ee" stroke="none" fill-opacity="0" />
  <path d="M 243 532  C 247.48 532  251 535.52  251 540  C 251 544.48  247.48 548  243 548  C 238.52 548  235 544.48  235 540  C 235 535.52  238.52 532  243 532  Z " stroke-width="2" stroke="#1e98d7" fill="none" />
  <path d="M 243 544.5  C 240.48 544.5  238.5 542.52  238.5 540  C 238.5 537.48  240.48 535.5  243 535.5  C 245.52 535.5  247.5 537.48  247.5 540  C 247.5 542.52  245.52 544.5  243 544.5  " fill-rule="nonzero" fill="#1e98d7" stroke="none" />
</svg>