<?xml version="1.0" encoding="utf-8"?>
<svg version="1.1" xmlns:xlink="http://www.w3.org/1999/xlink" width="18px" height="18px" viewBox="242 1141  18 18" xmlns="http://www.w3.org/2000/svg">
  <path d="M 251 1142  C 255.48 1142  259 1145.52  259 1150  C 259 1154.48  255.48 1158  251 1158  C 246.52 1158  243 1154.48  243 1150  C 243 1145.52  246.52 1142  251 1142  Z " fill-rule="nonzero" fill="#6200ee" stroke="none" fill-opacity="0" />
  <path d="M 251 1142  C 255.48 1142  259 1145.52  259 1150  C 259 1154.48  255.48 1158  251 1158  C 246.52 1158  243 1154.48  243 1150  C 243 1145.52  246.52 1142  251 1142  Z " stroke-width="2" stroke="#1e98d7" fill="none" />
  <path d="M 251 1154.5  C 248.48 1154.5  246.5 1152.52  246.5 1150  C 246.5 1147.48  248.48 1145.5  251 1145.5  C 253.52 1145.5  255.5 1147.48  255.5 1150  C 255.5 1152.52  253.52 1154.5  251 1154.5  " fill-rule="nonzero" fill="#1e98d7" stroke="none" />
</svg>