<?xml version="1.0" encoding="utf-8"?>
<svg version="1.1" xmlns:xlink="http://www.w3.org/1999/xlink" width="18px" height="18px" viewBox="242 922  18 18" xmlns="http://www.w3.org/2000/svg">
  <path d="M 251 923  C 255.48 923  259 926.52  259 931  C 259 935.48  255.48 939  251 939  C 246.52 939  243 935.48  243 931  C 243 926.52  246.52 923  251 923  Z " fill-rule="nonzero" fill="#6200ee" stroke="none" fill-opacity="0" />
  <path d="M 251 923  C 255.48 923  259 926.52  259 931  C 259 935.48  255.48 939  251 939  C 246.52 939  243 935.48  243 931  C 243 926.52  246.52 923  251 923  Z " stroke-width="2" stroke="#1e98d7" fill="none" />
  <path d="M 251 935.5  C 248.48 935.5  246.5 933.52  246.5 931  C 246.5 928.48  248.48 926.5  251 926.5  C 253.52 926.5  255.5 928.48  255.5 931  C 255.5 933.52  253.52 935.5  251 935.5  " fill-rule="nonzero" fill="#1e98d7" stroke="none" />
</svg>