<?xml version="1.0" encoding="utf-8"?>
<svg version="1.1" xmlns:xlink="http://www.w3.org/1999/xlink" width="18px" height="18px" viewBox="236 504  18 18" xmlns="http://www.w3.org/2000/svg">
  <path d="M 245 505  C 249.48 505  253 508.52  253 513  C 253 517.48  249.48 521  245 521  C 240.52 521  237 517.48  237 513  C 237 508.52  240.52 505  245 505  Z " fill-rule="nonzero" fill="#6200ee" stroke="none" fill-opacity="0" />
  <path d="M 245 505  C 249.48 505  253 508.52  253 513  C 253 517.48  249.48 521  245 521  C 240.52 521  237 517.48  237 513  C 237 508.52  240.52 505  245 505  Z " stroke-width="2" stroke="#1e98d7" fill="none" />
  <path d="M 245 517.5  C 242.48 517.5  240.5 515.52  240.5 513  C 240.5 510.48  242.48 508.5  245 508.5  C 247.52 508.5  249.5 510.48  249.5 513  C 249.5 515.52  247.52 517.5  245 517.5  " fill-rule="nonzero" fill="#1e98d7" stroke="none" />
</svg>