<?xml version="1.0" encoding="utf-8"?>
<svg version="1.1" xmlns:xlink="http://www.w3.org/1999/xlink" width="18px" height="18px" viewBox="250 915  18 18" xmlns="http://www.w3.org/2000/svg">
  <path d="M 259 916  C 263.48 916  267 919.52  267 924  C 267 928.48  263.48 932  259 932  C 254.52 932  251 928.48  251 924  C 251 919.52  254.52 916  259 916  Z " fill-rule="nonzero" fill="#6200ee" stroke="none" fill-opacity="0" />
  <path d="M 259 916  C 263.48 916  267 919.52  267 924  C 267 928.48  263.48 932  259 932  C 254.52 932  251 928.48  251 924  C 251 919.52  254.52 916  259 916  Z " stroke-width="2" stroke="#1e98d7" fill="none" />
  <path d="M 259 928.5  C 256.48 928.5  254.5 926.52  254.5 924  C 254.5 921.48  256.48 919.5  259 919.5  C 261.52 919.5  263.5 921.48  263.5 924  C 263.5 926.52  261.52 928.5  259 928.5  " fill-rule="nonzero" fill="#1e98d7" stroke="none" />
</svg>