<?xml version="1.0" encoding="utf-8"?>
<svg version="1.1" xmlns:xlink="http://www.w3.org/1999/xlink" width="18px" height="18px" viewBox="242 1072  18 18" xmlns="http://www.w3.org/2000/svg">
  <path d="M 251 1073  C 255.48 1073  259 1076.52  259 1081  C 259 1085.48  255.48 1089  251 1089  C 246.52 1089  243 1085.48  243 1081  C 243 1076.52  246.52 1073  251 1073  Z " fill-rule="nonzero" fill="#6200ee" stroke="none" fill-opacity="0" />
  <path d="M 251 1073  C 255.48 1073  259 1076.52  259 1081  C 259 1085.48  255.48 1089  251 1089  C 246.52 1089  243 1085.48  243 1081  C 243 1076.52  246.52 1073  251 1073  Z " stroke-width="2" stroke="#1e98d7" fill="none" />
  <path d="M 251 1085.5  C 248.48 1085.5  246.5 1083.52  246.5 1081  C 246.5 1078.48  248.48 1076.5  251 1076.5  C 253.52 1076.5  255.5 1078.48  255.5 1081  C 255.5 1083.52  253.52 1085.5  251 1085.5  " fill-rule="nonzero" fill="#1e98d7" stroke="none" />
</svg>