<?xml version="1.0" encoding="utf-8"?>
<svg version="1.1" xmlns:xlink="http://www.w3.org/1999/xlink" width="18px" height="18px" viewBox="250 969  18 18" xmlns="http://www.w3.org/2000/svg">
  <path d="M 259 970  C 263.48 970  267 973.52  267 978  C 267 982.48  263.48 986  259 986  C 254.52 986  251 982.48  251 978  C 251 973.52  254.52 970  259 970  Z " fill-rule="nonzero" fill="#6200ee" stroke="none" fill-opacity="0" />
  <path d="M 259 970  C 263.48 970  267 973.52  267 978  C 267 982.48  263.48 986  259 986  C 254.52 986  251 982.48  251 978  C 251 973.52  254.52 970  259 970  Z " stroke-width="2" stroke="#1e98d7" fill="none" />
  <path d="M 259 982.5  C 256.48 982.5  254.5 980.52  254.5 978  C 254.5 975.48  256.48 973.5  259 973.5  C 261.52 973.5  263.5 975.48  263.5 978  C 263.5 980.52  261.52 982.5  259 982.5  " fill-rule="nonzero" fill="#1e98d7" stroke="none" />
</svg>