<?xml version="1.0" encoding="utf-8"?>
<svg version="1.1" xmlns:xlink="http://www.w3.org/1999/xlink" width="18px" height="18px" viewBox="242 415  18 18" xmlns="http://www.w3.org/2000/svg">
  <path d="M 251 416  C 255.48 416  259 419.52  259 424  C 259 428.48  255.48 432  251 432  C 246.52 432  243 428.48  243 424  C 243 419.52  246.52 416  251 416  Z " fill-rule="nonzero" fill="#6200ee" stroke="none" fill-opacity="0" />
  <path d="M 251 416  C 255.48 416  259 419.52  259 424  C 259 428.48  255.48 432  251 432  C 246.52 432  243 428.48  243 424  C 243 419.52  246.52 416  251 416  Z " stroke-width="2" stroke="#1e98d7" fill="none" />
  <path d="M 251 428.5  C 248.48 428.5  246.5 426.52  246.5 424  C 246.5 421.48  248.48 419.5  251 419.5  C 253.52 419.5  255.5 421.48  255.5 424  C 255.5 426.52  253.52 428.5  251 428.5  " fill-rule="nonzero" fill="#1e98d7" stroke="none" />
</svg>