<?xml version="1.0" encoding="utf-8"?>
<svg version="1.1" xmlns:xlink="http://www.w3.org/1999/xlink" width="18px" height="18px" viewBox="242 1132  18 18" xmlns="http://www.w3.org/2000/svg">
  <path d="M 251 1133  C 255.48 1133  259 1136.52  259 1141  C 259 1145.48  255.48 1149  251 1149  C 246.52 1149  243 1145.48  243 1141  C 243 1136.52  246.52 1133  251 1133  Z " fill-rule="nonzero" fill="#6200ee" stroke="none" fill-opacity="0" />
  <path d="M 251 1133  C 255.48 1133  259 1136.52  259 1141  C 259 1145.48  255.48 1149  251 1149  C 246.52 1149  243 1145.48  243 1141  C 243 1136.52  246.52 1133  251 1133  Z " stroke-width="2" stroke="#1e98d7" fill="none" />
  <path d="M 251 1145.5  C 248.48 1145.5  246.5 1143.52  246.5 1141  C 246.5 1138.48  248.48 1136.5  251 1136.5  C 253.52 1136.5  255.5 1138.48  255.5 1141  C 255.5 1143.52  253.52 1145.5  251 1145.5  " fill-rule="nonzero" fill="#1e98d7" stroke="none" />
</svg>