<?xml version="1.0" encoding="utf-8"?>
<svg version="1.1" xmlns:xlink="http://www.w3.org/1999/xlink" width="18px" height="18px" viewBox="242 873  18 18" xmlns="http://www.w3.org/2000/svg">
  <path d="M 251 874  C 255.48 874  259 877.52  259 882  C 259 886.48  255.48 890  251 890  C 246.52 890  243 886.48  243 882  C 243 877.52  246.52 874  251 874  Z " fill-rule="nonzero" fill="#6200ee" stroke="none" fill-opacity="0" />
  <path d="M 251 874  C 255.48 874  259 877.52  259 882  C 259 886.48  255.48 890  251 890  C 246.52 890  243 886.48  243 882  C 243 877.52  246.52 874  251 874  Z " stroke-width="2" stroke="#1e98d7" fill="none" />
  <path d="M 251 886.5  C 248.48 886.5  246.5 884.52  246.5 882  C 246.5 879.48  248.48 877.5  251 877.5  C 253.52 877.5  255.5 879.48  255.5 882  C 255.5 884.52  253.52 886.5  251 886.5  " fill-rule="nonzero" fill="#1e98d7" stroke="none" />
</svg>