<?xml version="1.0" encoding="utf-8"?>
<svg version="1.1" xmlns:xlink="http://www.w3.org/1999/xlink" width="18px" height="18px" viewBox="236 939  18 18" xmlns="http://www.w3.org/2000/svg">
  <path d="M 245 940  C 249.48 940  253 943.52  253 948  C 253 952.48  249.48 956  245 956  C 240.52 956  237 952.48  237 948  C 237 943.52  240.52 940  245 940  Z " fill-rule="nonzero" fill="#6200ee" stroke="none" fill-opacity="0" />
  <path d="M 245 940  C 249.48 940  253 943.52  253 948  C 253 952.48  249.48 956  245 956  C 240.52 956  237 952.48  237 948  C 237 943.52  240.52 940  245 940  Z " stroke-width="2" stroke="#1e98d7" fill="none" />
  <path d="M 245 952.5  C 242.48 952.5  240.5 950.52  240.5 948  C 240.5 945.48  242.48 943.5  245 943.5  C 247.52 943.5  249.5 945.48  249.5 948  C 249.5 950.52  247.52 952.5  245 952.5  " fill-rule="nonzero" fill="#1e98d7" stroke="none" />
</svg>