<?xml version="1.0" encoding="utf-8"?>
<svg version="1.1" xmlns:xlink="http://www.w3.org/1999/xlink" width="18px" height="18px" viewBox="236 989  18 18" xmlns="http://www.w3.org/2000/svg">
  <path d="M 245 990  C 249.48 990  253 993.52  253 998  C 253 1002.48  249.48 1006  245 1006  C 240.52 1006  237 1002.48  237 998  C 237 993.52  240.52 990  245 990  Z " fill-rule="nonzero" fill="#6200ee" stroke="none" fill-opacity="0" />
  <path d="M 245 990  C 249.48 990  253 993.52  253 998  C 253 1002.48  249.48 1006  245 1006  C 240.52 1006  237 1002.48  237 998  C 237 993.52  240.52 990  245 990  Z " stroke-width="2" stroke="#1e98d7" fill="none" />
  <path d="M 245 1002.5  C 242.48 1002.5  240.5 1000.52  240.5 998  C 240.5 995.48  242.48 993.5  245 993.5  C 247.52 993.5  249.5 995.48  249.5 998  C 249.5 1000.52  247.52 1002.5  245 1002.5  " fill-rule="nonzero" fill="#1e98d7" stroke="none" />
</svg>