<?xml version="1.0" encoding="utf-8"?>
<svg version="1.1" xmlns:xlink="http://www.w3.org/1999/xlink" width="18px" height="18px" viewBox="236 1086  18 18" xmlns="http://www.w3.org/2000/svg">
  <path d="M 245 1087  C 249.48 1087  253 1090.52  253 1095  C 253 1099.48  249.48 1103  245 1103  C 240.52 1103  237 1099.48  237 1095  C 237 1090.52  240.52 1087  245 1087  Z " fill-rule="nonzero" fill="#6200ee" stroke="none" fill-opacity="0" />
  <path d="M 245 1087  C 249.48 1087  253 1090.52  253 1095  C 253 1099.48  249.48 1103  245 1103  C 240.52 1103  237 1099.48  237 1095  C 237 1090.52  240.52 1087  245 1087  Z " stroke-width="2" stroke="#1e98d7" fill="none" />
  <path d="M 245 1099.5  C 242.48 1099.5  240.5 1097.52  240.5 1095  C 240.5 1092.48  242.48 1090.5  245 1090.5  C 247.52 1090.5  249.5 1092.48  249.5 1095  C 249.5 1097.52  247.52 1099.5  245 1099.5  " fill-rule="nonzero" fill="#1e98d7" stroke="none" />
</svg>