<?xml version="1.0" encoding="utf-8"?>
<svg version="1.1" xmlns:xlink="http://www.w3.org/1999/xlink" width="18px" height="18px" viewBox="236 1039  18 18" xmlns="http://www.w3.org/2000/svg">
  <path d="M 245 1040  C 249.48 1040  253 1043.52  253 1048  C 253 1052.48  249.48 1056  245 1056  C 240.52 1056  237 1052.48  237 1048  C 237 1043.52  240.52 1040  245 1040  Z " fill-rule="nonzero" fill="#6200ee" stroke="none" fill-opacity="0" />
  <path d="M 245 1040  C 249.48 1040  253 1043.52  253 1048  C 253 1052.48  249.48 1056  245 1056  C 240.52 1056  237 1052.48  237 1048  C 237 1043.52  240.52 1040  245 1040  Z " stroke-width="2" stroke="#1e98d7" fill="none" />
  <path d="M 245 1052.5  C 242.48 1052.5  240.5 1050.52  240.5 1048  C 240.5 1045.48  242.48 1043.5  245 1043.5  C 247.52 1043.5  249.5 1045.48  249.5 1048  C 249.5 1050.52  247.52 1052.5  245 1052.5  " fill-rule="nonzero" fill="#1e98d7" stroke="none" />
</svg>