<?xml version="1.0" encoding="utf-8"?>
<svg version="1.1" xmlns:xlink="http://www.w3.org/1999/xlink" width="42px" height="42px" xmlns="http://www.w3.org/2000/svg">
  <g transform="matrix(1 0 0 1 -622 -44 )">
    <path d="M 7.097029702970297 38.45148514851485  L 10.063366336633663 38.45148514851485  L 12.586138613861387 35.928712871287125  L 6.0712871287128705 29.413861386138613  L 3.5485148514851486 31.936633663366337  L 3.5485148514851486 34.902970297029704  L 7.097029702970297 34.902970297029704  L 7.097029702970297 38.45148514851485  Z M 24.368316831683167 13.196039603960395  C 24.4976897689769 13.066666666666666  24.562376237623763 12.909570957095708  24.562376237623763 12.724752475247527  C 24.562376237623763 12.318151815181517  24.35907590759076 12.114851485148513  23.95247524752475 12.114851485148513  C 23.76765676567657 12.114851485148513  23.610561056105617 12.179537953795377  23.481188118811883 12.308910891089111  L 8.455445544554456 27.334653465346538  C 8.326072607260727 27.46402640264026  8.261386138613862 27.621122112211214  8.261386138613862 27.805940594059408  C 8.261386138613862 28.212541254125405  8.464686468646866 28.415841584158418  8.871287128712872 28.415841584158418  C 9.056105610561056 28.415841584158418  9.213201320132013 28.35115511551155  9.342574257425742 28.221782178217822  L 24.368316831683167 13.196039603960395  Z M 0 30.46732673267327  L 23.065346534653465 7.401980198019804  L 34.59801980198019 18.934653465346535  L 11.532673267326732 42  L 0 42  L 0 30.46732673267327  Z M 40.97425742574257 7.540594059405939  C 41.65808580858086 8.261386138613862  42 9.102310231023102  42 10.063366336633663  C 42 11.042904290429043  41.65808580858086 11.874587458745872  40.97425742574257 12.55841584158416  L 36.37227722772277 17.16039603960396  L 24.83960396039604 5.627722772277229  L 29.44158415841584 1.0534653465346513  C 30.106930693069305 0.3511551155115473  30.938613861386138 0  31.936633663366337 0  C 32.91617161716172 0  33.75709570957096 0.3511551155115473  34.45940594059406 1.0534653465346513  L 40.97425742574257 7.540594059405939  Z " fill-rule="nonzero" fill="#000000" stroke="none" transform="matrix(1 0 0 1 622 44 )" />
  </g>
</svg>